name C:\Users\tom_v\MusculoskeletalSpecialization\ResultsSprinting\Case_1\motion.mot
datacolumns 32
datarows 16
range 0.23708294 0.30820782
endheader 
time	pelvis_tilt	pelvis_list	pelvis_rotation	pelvis_tx	pelvis_ty	pelvis_tz	hip_flexion_r	hip_adduction_r	hip_rotation_r	knee_angle_r	ankle_angle_r	subtalar_angle_r	mtp_angle_r	hip_flexion_l	hip_adduction_l	hip_rotation_l	knee_angle_l	ankle_angle_l	subtalar_angle_l	mtp_angle_l	lumbar_extension	lumbar_bending	lumbar_rotation	arm_flex_r	arm_add_r	arm_rot_r	elbow_flex_r	arm_flex_l	arm_add_l	arm_rot_l	elbow_flex_l	
          0.23708294	         -6.01594384	          5.78712116	         -2.25390310	          1.92566252	          0.96125679	         -0.00554052	         13.30816859	        -11.75529248	         -4.75029447	        -65.39259180	         -4.89568548	          8.35793991	         -1.91771543	         26.39654341	          6.41759498	         -8.64579769	         -7.34498016	          6.84254250	          2.06355646	         -2.35017842	        -11.66628799	         -8.24563973	          8.17111102	         11.29687318	        -23.89980485	         18.68813165	         58.37474693	         11.10125530	        -10.39304364	        -13.07871898	          1.30920879	
          0.24182460	         -6.52485768	          4.93757811	         -0.48349097	          1.96545465	          0.95833327	         -0.00410128	         14.99586950	        -10.11415199	         -4.51568144	        -66.21879954	         -4.32597805	          8.59385032	         -4.07269127	         24.72642279	          5.75969945	         -8.06109109	         -6.13724565	          4.06200913	          2.66398409	         -4.78362047	        -10.74967187	         -7.65809204	          5.57412201	         13.76768806	        -18.30430796	         19.37652989	         41.14621077	         14.63613097	        -12.58695726	        -13.06869286	          0.09264785	
          0.24656625	         -6.96806341	          3.97348317	          1.14030240	          2.00524975	          0.95481383	         -0.00259063	         16.80091811	         -8.44869404	         -4.23378584	        -67.09773934	         -4.26351849	          8.93232242	         -1.26998937	         23.05522530	          4.86042581	         -7.48536233	         -5.07042105	          0.47416712	          2.24707406	          1.60627513	         -9.87522099	         -6.98011257	          3.29316760	         15.95050671	        -12.87435268	         17.74738074	         23.74743216	         17.93858015	        -14.93188367	        -12.28912065	          0.36864490	
          0.25130791	         -7.41658568	          2.86169885	          2.62167460	          2.04512696	          0.95051025	         -0.00116506	         18.76149253	         -6.74555297	         -3.95717898	        -68.04936165	         -3.24244000	          9.73257208	          1.51636146	         21.47807937	          3.70058967	         -7.04340793	         -4.22496393	         -2.16006220	          1.56366760	          3.98305770	         -8.97126474	         -6.15957596	          1.33952985	         17.08593665	         -8.64383739	         13.35442192	          9.35911533	         20.36933360	        -17.26685737	        -12.14838155	          3.78935414	
          0.25604957	         -7.90470228	          1.64241859	          3.99147827	          2.08517784	          0.94556668	          0.00006848	         20.88557141	         -5.07949140	         -3.76014770	        -69.00829485	         -1.62342640	         10.63593798	          3.20526647	         20.03690106	          2.36587024	         -7.00153701	         -3.71918389	         -5.99820328	          0.77986693	          6.49272730	         -8.01398443	         -5.26727846	         -0.33632615	         16.15847947	         -6.32166654	          5.91770268	          1.21297758	         21.32779626	        -19.44937059	        -13.10120705	         11.74035780	
          0.26079123	         -8.51023327	          0.76836559	          5.54559443	          2.12510625	          0.94062173	          0.00061738	         23.19436484	         -4.12006022	         -3.84357270	        -69.96810525	          0.63343219	         11.49271668	         -1.32670226	         19.05231262	          1.60834814	         -5.59551983	         -5.19333010	         -4.70791839	          1.13717238	          7.88519011	         -7.05994410	         -4.81999081	         -2.11182992	         12.41889182	         -5.51573437	         -3.09128622	          0.75672100	         20.68618149	        -21.72445712	        -12.89322336	         24.44811875	
          0.26553289	         -9.13182835	          0.64780402	          7.37701361	          2.16464028	          0.93666472	          0.00035769	         25.52924373	         -4.34693756	         -4.09041027	        -70.88148415	          1.68146900	         11.91743028	         -3.82045562	         18.17523228	          1.98667495	         -1.80512742	         -7.47006205	          0.15756180	         -0.77328075	         10.04699680	         -6.39910227	         -5.24819905	         -4.12574926	          5.53238939	         -5.13083664	        -10.29336427	          8.20979922	         19.19336040	        -24.71450286	        -10.74730972	         40.38323026	
          0.27027455	         -9.54259876	          0.79081335	          9.26030227	          2.20386052	          0.93382384	         -0.00033592	         27.60739143	         -5.01314071	         -4.31623423	        -71.61439784	          1.92074203	         11.95177944	         -3.76946235	         16.95078147	          2.71280704	          2.25096377	         -9.26337697	          2.62115061	         -3.85888709	         12.90132770	         -6.21808647	         -5.89748640	         -6.05659403	         -3.86081927	         -4.91670612	        -13.09761634	         21.72186535	         18.38037325	        -28.54357080	         -7.24614133	         56.41731410	
          0.27501621	         -9.68122361	          0.73958396	         10.97624600	          2.24280423	          0.93179167	         -0.00113891	         29.41137930	         -5.43678795	         -4.41763083	        -72.10252387	          2.06629628	         11.85419048	         -1.51587855	         15.39855411	          3.04057191	          5.67719552	        -10.86776235	          4.47369942	         -6.28466898	         16.03795035	         -6.39457337	         -6.17634517	         -7.66568602	        -14.16279968	         -5.38235336	        -13.01234703	         36.97157575	         19.23090831	        -32.84160348	         -2.80628617	         70.81498901	
          0.27975786	         -9.72388700	          0.32402683	         12.37526737	          2.28153621	          0.93012386	         -0.00180889	         31.20077495	         -5.35575536	         -4.31476294	        -72.36028067	          2.74112811	         11.88748772	          1.68650811	         13.78502876	          2.69794274	          8.03964105	        -12.34500981	          6.14400334	         -7.50397913	         19.19957692	         -6.55544183	         -5.93524492	         -8.82869491	        -24.22650654	         -6.60737361	        -12.33843942	         50.66287525	         22.13665672	        -37.07502701	          2.58447672	         83.05088380	
          0.28449952	         -9.90692247	         -0.49626294	         13.46573982	          2.32008489	          0.92843210	         -0.00236592	         33.25806642	         -4.80192607	         -4.08068262	        -72.40039327	          4.03938242	         12.01961342	          3.22013039	         12.45053895	          1.71602221	          9.33087667	        -13.75982013	          7.51724289	         -7.68129040	         22.58071604	         -6.35005618	         -5.21647801	         -9.60052760	        -33.66509615	         -8.40358807	        -11.98993434	         61.46272609	         27.02922143	        -40.54595238	          8.72166020	         93.08961616	
          0.28924118	        -10.32203431	         -1.67142129	         14.36762243	          2.35844904	          0.92669266	         -0.00304000	         35.64685225	         -3.97576354	         -3.89093505	        -72.18926132	          5.20262370	         12.02009683	          4.44471684	         11.57517765	          0.26564011	          9.86570668	        -15.21866109	          8.30590821	         -7.21998522	         26.53445440	         -5.67859340	         -4.11099657	        -10.21142828	        -42.34885094	        -10.63453930	        -12.18577814	         68.95341420	         33.08670517	        -42.45460929	         14.48047167	        101.09471412	
          0.29398284	        -10.91191584	         -3.14403588	         15.17800302	          2.39667901	          0.92510929	         -0.00405039	         38.23613850	         -3.03980737	         -3.88890759	        -71.67690901	          6.06121987	         11.82717807	          5.34850915	         11.14197571	         -1.51477262	          9.99999316	        -16.79747525	          8.31580069	         -6.54129792	         31.16900710	         -4.62143064	         -2.66565868	        -10.85982531	        -50.15590735	        -13.29950611	        -12.82098852	         72.95933861	         38.95577602	        -42.28639765	         18.40573806	        107.19303328	
          0.29872450	        -11.56130996	         -4.87063964	         15.92984397	          2.43487219	          0.92389476	         -0.00548268	         40.84762489	         -2.06406994	         -4.14385265	        -70.83274505	          6.66444874	         11.30305470	          5.89508483	         11.02978406	         -3.56614554	          9.86203372	        -18.49255281	          7.40184054	         -5.89930964	         36.64476593	         -3.31197675	         -0.90633134	        -11.63776140	        -56.89707970	        -16.60369283	        -13.19967764	         73.31743512	         43.44071549	        -39.90132633	         19.39920646	        111.46477902	
          0.30346616	        -12.17532168	         -6.78640289	         16.62787766	          2.47311012	          0.92313350	         -0.00727386	         43.35345603	         -1.08906137	         -4.65073873	        -69.68214145	          7.16828835	         10.36301878	          6.09007195	         11.11061625	         -5.84006994	          9.49734229	        -20.25205298	          5.51216021	         -5.43138368	         42.90009269	         -1.86923860	          1.09568250	        -12.54550781	        -62.38385053	        -20.58102230	        -12.47402342	         70.11216467	         46.25635784	        -35.50479014	         17.56397030	        113.94719449	
          0.30820782	        -12.72044268	         -8.79027983	         17.26731169	          2.51140553	          0.92272951	         -0.00930102	         45.71946132	         -0.17607098	         -5.33649618	        -68.31722469	          7.86589583	          9.13075891	          4.82228904	         11.31221194	         -8.20165942	          9.16730854	        -22.17636200	          3.67020873	         -5.04965004	         46.12135099	         -0.36819891	          3.21619650	        -13.59071466	        -66.48853186	        -25.17376051	         -9.70829158	         63.92489773	         47.78126798	        -29.67590720	         13.85453686	        114.87749152	
